<?xml version="1.0" standalone="no"?>
  <!DOCTYPE svg PUBLIC "-//W3C//DTD SVG 1.1//EN" "http://www.w3.org/Graphics/SVG/1.1/DTD/svg11.dtd" >
  <svg>
  <metadata>
  Created by font-carrier
  </metadata>
  <defs>
  <font id="hui-iconfont" horiz-adv-x="1536" vert-adv-y="1536" >
    <font-face
      
      font-family="hui-iconfont"
      
      font-weight="400"
      
      font-stretch="normal"
      
      units-per-em="1024"
      
      ascent="896"
      
      descent="-128"
      
    />
      <missing-glyph />

      

      
      <glyph glyph-name="uni78" unicode="&#x78;" d="M44 143L44 310L955 310L955 258L956 148Q956 99 924.50 74Q893 49 847 49Q842 49 836.50 49.50Q831 50 826 50L764 50L719 178L280 178L236 50L173 50L152 50Q135 50 117 51.50Q99 53 87 61Q63 75 53.50 98Q44 121 44 143M956 364L44 364L44 440Q44 466 53 485.50Q62 505 76 517.50Q90 530 108.50 536Q127 542 145 542L228 542Q241 542 254 542Q267 542 281 543L281 446L719 446L719 543L852 543Q882 543 901.50 534Q921 525 933 511.50Q945 498 950 482.50Q955 467 955 453L956 364M336 726Q336 737 338.50 749Q341 761 348.50 770.50Q356 780 369 786Q382 792 403 792L591 792Q622 792 642.50 777.50Q663 763 663 725L663 498L336 498L336 726M313-31Q299-31 291.50-27Q284-23 282-16.50Q280-10 281-2Q282 6 284 13L292 38L295 50Q299 59 302 75Q305 86 308.50 98Q312 110 316 123L684 123Q690 104 694.50 85.50Q699 67 704 50Q706 42 709 34Q712 26 714 19Q723-7 712-19Q701-31 678-31L313-31M164 187Q179 187 186 196.50Q193 206 193 217Q193 228 185.50 237.50Q178 247 163 247Q149 247 141.50 237.50Q134 228 134 217Q134 206 141.50 196.50Q149 187 164 187Z"  horiz-adv-x="1001" vert-adv-y="1024"  />

      
      <glyph glyph-name="uniE600" unicode="&#xE600;" d="M697 738Q714 755 737 755Q760 755 777 738L936 579Q952 562 952 539.50Q952 517 936 500L840 404L601 642L697 738M650 373L729 293L392-44L312 35L650 373M570 452L610 413L272 75L233 115L570 452M491 532L530 492L193 155L153 194L491 532M469-65L863-65L863-122L469-122L469-65M244-122L76-122L76 47L244-122Z"  horiz-adv-x="1000" vert-adv-y="1024"  />

      
      <glyph glyph-name="uniE620" unicode="&#xE620;" d="M62-48L62 681Q63 703 78 718.50Q93 734 115 734L940 734Q963 734 978 718.50Q993 703 994 681L994-48Q993-71 978-86Q963-101 940-101L115-101Q93-101 78-86Q63-71 62-48M103 655L103-23Q103-40 114.50-51.50Q126-63 143-63L912-63Q930-63 941-51.50Q952-40 953-23L953 655Q951 694 912 696L143 696Q126 695 114.50 684Q103 673 103 655M167 113L144 147L344 297L434 207L667 438L912 192L884 161L666 380L434 147L340 243L167 113M207 502Q207 540 232 565.50Q257 591 295 592Q333 591 358.50 565.50Q384 540 384 502Q384 464 358.50 438.50Q333 413 295 413Q257 413 232 438.50Q207 464 207 502M388-6L388 35L898 35L898-6L388-6M573 88L573 129L898 129L898 88L573 88M247 502Q247 481 261 467.50Q275 454 296 454Q316 454 329.50 467.50Q343 481 344 502Q343 523 329.50 536.50Q316 550 296 550Q275 550 261 536.50Q247 523 247 502Z"  horiz-adv-x="1024" vert-adv-y="1024"  />

      
      <glyph glyph-name="uniE652" unicode="&#xE652;" d="M216 600Q264 648 324 678Q384 708 453 718Q536 729 615.50 709Q695 689 763 638Q831 587 873 516.50Q915 446 927 362Q948 186 847.50 52Q747-82 572-112Q499-122 428-107.50Q357-93 295-56Q284-49 281-37.50Q278-26 285-15Q292-4 303.50-1Q315 2 326-4Q379-37 440-49.50Q501-62 563-53Q713-27 799 87.50Q885 202 868 354Q857 425 821 486Q785 547 727 590.50Q669 634 601 651Q533 668 461 658Q311 633 225 518Q139 403 156 252Q168 174 209 109Q216 98 213.50 86.50Q211 75 200.50 68Q190 61 178 63.50Q166 66 159 77Q110 153 97 243Q85 327 105.50 406.50Q126 486 177 554Q195 578 216 600M515 22Q496 23 483.50 35.50Q471 48 471 67Q471 86 483.50 99Q496 112 515 112Q534 112 547 99Q560 86 560 67Q560 48 547 35.50Q534 23 515 22M598 328Q578 309 562 289.50Q546 270 545 251L545 201Q545 188 536.50 179.50Q528 171 515.50 171Q503 171 494.50 179.50Q486 188 485 201L485 251Q487 288 508.50 317Q530 346 556 371Q575 389 589.50 407Q604 425 605 440Q604 478 578.50 504Q553 530 515 530Q477 530 451.50 505Q426 480 425 442Q425 429 416.50 420.50Q408 412 395.50 412Q383 412 374.50 420.50Q366 429 366 442Q367 505 409.50 547Q452 589 515 590Q579 589 621 546.50Q663 504 665 440Q664 407 644 380Q624 353 598 328M216 600Q264 648 324 678Q384 708 453 718Q536 729 615.50 709Q695 689 763 638Q831 587 873 516.50Q915 446 927 362Q948 186 847.50 52Q747-82 572-112Q499-122 428-107.50Q357-93 295-56Q284-49 281-37.50Q278-26 285-15Q292-4 303.50-1Q315 2 326-4Q379-37 440-49.50Q501-62 563-53Q713-27 799 87.50Q885 202 868 354Q857 425 821 486Q785 547 727 590.50Q669 634 601 651Q533 668 461 658Q311 633 225 518Q139 403 156 252Q168 174 209 109Q216 98 213.50 86.50Q211 75 200.50 68Q190 61 178 63.50Q166 66 159 77Q110 153 97 243Q85 327 105.50 406.50Q126 486 177 554Q195 578 216 600Z"  horiz-adv-x="1024" vert-adv-y="1024"  />

      
      <glyph glyph-name="uniE714" unicode="&#xE714;" d="M52 407Q54 482 80.50 545Q107 608 153.50 654Q200 700 263 727Q326 754 400 756Q475 754 538 727Q601 700 647 654Q693 608 720 545Q747 482 749 407Q746 309 702 232Q712 226 718 220L947-10Q972-35 972-70Q972-105 947-130Q922-155 887-156Q852-154 827-131L597 99Q590 106 587 112Q505 60 400 59Q326 61 263 87.50Q200 114 153.50 160.50Q107 207 80.50 270Q54 333 52 407M109 407Q111 345 133 292Q155 239 193.50 200.50Q232 162 285 140Q338 118 400 116Q463 118 515.50 140Q568 162 606.50 200.50Q645 239 667.50 292Q690 345 692 407Q690 470 667.50 522.50Q645 575 606.50 614Q568 653 515.50 675.50Q463 698 400 699Q337 698 284.50 675.50Q232 653 193.50 614Q155 575 133 522.50Q111 470 109 407M635 142Q634 142 637 139L867-90Q876-99 886-99Q903-99 912-82.50Q921-66 907-50L678 179Q676 181 675.50 182Q675 183 674 183Q672 183 663 175Q654 167 652 165Q640 153 637 148Q634 143 635 142M182 537Q217 595 274 627.50Q331 660 400 661Q407 661 410.50 656.50Q414 652 414 646.50Q414 641 410.50 636.50Q407 632 400 632Q340 632 289 603Q238 574 206 522Q202 515 194 515Q188 515 182.50 521Q177 527 182 537M146 415Q146 430 148 441Q150 452 153 465Q157 475 167 475Q173 475 178 471Q183 467 181 459Q178 446 176.50 437Q175 428 175 415Q175 401 161 401Q148 401 146 415Z"  horiz-adv-x="1024" vert-adv-y="1024"  />

      
      <glyph glyph-name="uniE647" unicode="&#xE647;" d="M512-151Q440-151 372-128.50Q304-106 244-62Q172-7 127.50 68.50Q83 144 70 233.50Q57 323 78.50 408Q100 493 154 565Q272 715 449 740Q626 765 782 655Q844 608 886.50 543.50Q929 479 948 403Q951 390 944.50 379Q938 368 924.50 365Q911 362 900 368.50Q889 375 886 388Q870 453 833.50 508.50Q797 564 743 604Q610 698 458.50 676.50Q307 655 206 527Q159 465 140.50 392Q122 319 133 242.50Q144 166 182.50 101Q221 36 283-11Q416-105 567.50-83Q719-61 820 67Q870 134 888 214Q891 228 902 234.50Q913 241 926 238.50Q939 236 946 225Q953 214 951 201Q930 106 872 28Q817-44 741.50-89Q666-134 577-147Q544-151 512-151Z"  horiz-adv-x="1024" vert-adv-y="1024"  />

      
      <glyph glyph-name="uniE64A" unicode="&#xE64A;" d="M741 716Q889 698 954.50 471Q1020 244 511-109L511-111L510-110L508-111L508-109Q0 244 65.50 471Q131 698 278 716Q378 719 439 666.50Q500 614 510 593Q520 614 581 666.50Q642 719 741 716Z"  horiz-adv-x="1024" vert-adv-y="1024"  />

      
      <glyph glyph-name="uniE62E" unicode="&#xE62E;" d="M135 812L710 812L975 543L975-126Q974-163 949.50-187Q925-211 889-212L135-212Q99-211 74.50-187Q50-163 49-126L49 726Q50 763 74.50 787Q99 811 135 812M135-168L889-168Q906-167 918-155.50Q930-144 930-126L930 513L770 513Q734 514 709.50 538Q685 562 685 599L685 768L135 768Q118 767 106 755.50Q94 744 94 726L94-126Q94-144 106-155.50Q118-167 135-168M221 195L800 195L800 150L221 150L221 195M221 4L221 48L800 48L800 4L221 4M729 729L729 599Q729 581 741 569.50Q753 558 770 557L899 557L729 729M221 369L473 369L473 324L221 324L221 369M221 482L473 482L473 438L221 438L221 482M221 596L473 596L473 552L221 552L221 596Z"  horiz-adv-x="1024" vert-adv-y="1024"  />

      
      <glyph glyph-name="uniE608" unicode="&#xE608;" d="M775 358Q791 342 792.50 320.50Q794 299 781 281Q784 267 780 253Q776 239 766 229L346-192Q328-208 305-208Q282-208 265-191Q248-174 248-151Q248-128 265-111L670 295L255 711Q238 729 238 752.50Q238 776 255.50 794Q273 812 296.50 812Q320 812 339 795L775 358Z"  horiz-adv-x="1024" vert-adv-y="1024"  />

      
      <glyph glyph-name="uniE618" unicode="&#xE618;" d="M66-124Q66-118 68-112Q79 18 151 116Q223 214 337 265Q283 303 253 361.50Q223 420 222 490Q224 550 245.50 600Q267 650 304 687Q341 724 391.50 745.50Q442 767 501 768Q560 767 610.50 745.50Q661 724 698 687Q735 650 757 600Q779 550 780 490Q779 421 751 365Q723 309 672 270Q792 222 868 122.50Q944 23 956-111Q958-119 958-124Q958-146 944.50-156.50Q931-167 914-167Q897-167 883-156.50Q869-146 869-124L868-124Q862-51 833 10Q804 71 757 115Q710 159 647.50 184.50Q585 210 512 211Q439 210 376.50 184.50Q314 159 267 115Q220 71 191 10Q162-51 156-124L155-124Q155-146 141.50-156.50Q128-167 111-167Q94-167 80-156.50Q66-146 66-124M311 490Q312 450 326.50 415.50Q341 381 366.50 355.50Q392 330 426.50 315.50Q461 301 501 300Q541 301 575 315.50Q609 330 634.50 355.50Q660 381 674.50 415.50Q689 450 690 490Q689 530 674.50 564Q660 598 634.50 623.50Q609 649 575 663.50Q541 678 501 679Q461 678 426.50 663.50Q392 649 366.50 623.50Q341 598 326.50 564Q312 530 311 490Z"  horiz-adv-x="1024" vert-adv-y="1024"  />

      
      <glyph glyph-name="uniE655" unicode="&#xE655;" d="M508 467Q477 436 447 407L83 47Q62 25 33 34Q11 42 4 63.50Q-3 85 12 104L19 112L462 551Q475 564 493 566L510 570Q534 573 551 556L1001 110Q1008 104 1013 96Q1020 83 1017.50 66Q1015 49 1003 39Q989 28 972.50 27.50Q956 27 942 38L514 460L508 467Z"  horiz-adv-x="1024" vert-adv-y="1024"  />

      
      <glyph glyph-name="uniE612" unicode="&#xE612;" d="M178 641L178 812L218 812L218 641L846 640L846 0L1024 0L1024-41L846-41L846-212L806-212L806-41L178-40L178 600L0 600L0 641L178 641M218 600L218 0L806 0L806 600L218 600M263 560L761 560L761 40L263 40L263 560M733 81L637 222L577 144L464 324L292 81L733 81M373 386Q399 386 415 402.50Q431 419 431 444Q431 469 414.50 486Q398 503 373 503Q347 503 330.50 486Q314 469 314 444Q314 419 330.50 402.50Q347 386 373 386Z"  horiz-adv-x="1024" vert-adv-y="1024"  />

      
      <glyph glyph-name="uniE62D" unicode="&#xE62D;" d="M114 555Q119 582 138 598.50Q157 615 182 615L252 615L252 625Q252 630 252 635Q252 640 253 645Q258 670 276.50 686Q295 702 321 703L840 703Q847 703 850 702Q873 699 888.50 684Q904 669 909 646L911 638L911-38L910-40Q909-44 908.50-48Q908-52 907-56Q899-78 881-90.50Q863-103 839-103L185-103L176-102Q152-100 133-82Q114-64 113-34L113 545Q113 552 114 555M157 537L157-25Q158-41 168.50-49.50Q179-58 194-58L833-58Q858-58 864-35Q865-31 865.50-28Q866-25 866-21L866 626Q865 641 854 649.50Q843 658 829 658L325 658Q306 658 299 642Q292 626 290 610L290 76L251 76Q246 76 246 81L246 573L190 573Q174 572 165.50 562Q157 552 157 537M379 569L600 569L600 345L379 345L379 569M556 390L556 524L423 524L423 390L556 390M379 76L379 120L774 120Q776 121 778 119L778 116L778 76L379 76M379 300L774 300Q776 301 778 299L778 296L778 256L379 256L379 300M379 210L778 210L778 166L379 166L379 210M645 569L774 569Q780 571 778 565L778 525L645 525L645 569M645 434L645 478L774 478Q778 479 778 475L778 434L645 434M645 386Q645 389 648 389L775 389Q778 391 778 387L778 345L645 345L645 386Z"  horiz-adv-x="1024" vert-adv-y="1024"  />

      
      <glyph glyph-name="uniE62C" unicode="&#xE62C;" d="M708-48Q714-50 712-43L712 479L511 479Q502 480 501 489L501 687L190 687Q185 687 186 680L186-43Q184-50 190-48L708-48M530 509Q530 505 535 505L692 506L530 668L530 509M740-66Q738-74 730-75L169-75Q166-75 162-73Q158-70 158-66L158 706Q158 711 162 714Q166 716 169 716L518 716Q522 716 526 712L736 502Q739 500 740 495L740-66M608 373L290 373Q277 373 277 386L277 388Q277 394 281 398Q284 400 290 402L608 402Q614 400 617 398Q621 394 621 388L621 386Q621 373 608 373M608 267L290 267Q285 267 281 271Q277 274 277 280L277 281Q277 287 281 291Q286 294 290 294L608 294Q613 294 617 291Q621 287 621 281L621 280Q621 274 617 271Q613 267 608 267M608 162L290 162Q285 162 281 166Q277 169 277 175Q277 181 281 185Q286 188 290 188L608 188Q613 188 617 185Q621 181 621 175Q621 169 617 166Q613 162 608 162Z"  horiz-adv-x="1024" vert-adv-y="1024"  />

      
      <glyph glyph-name="uniE634" unicode="&#xE634;" d="M1066-212L57-212Q33-211 17-195Q1-179 0-155Q1-131 17-115Q33-99 57-98L1066-98Q1090-99 1106-115Q1122-131 1123-155Q1122-179 1106-195Q1090-211 1066-212M1066 243L57 243Q33 244 17 260Q1 276 1 300Q1 324 17 340Q33 356 57 357L1066 357Q1090 356 1106 340Q1122 324 1122 300Q1122 276 1106 260Q1090 244 1066 243M1066 698L57 698Q33 699 17 715Q1 731 0 755Q1 779 17 795Q33 811 57 812L1066 812Q1090 811 1106 795Q1122 779 1123 755Q1122 731 1106 715Q1090 699 1066 698Z"  horiz-adv-x="1124" vert-adv-y="1024"  />

      
      <glyph glyph-name="uniE610" unicode="&#xE610;" d="M527-47Q337-42 210.50 84.50Q84 211 79 401Q82 546 160.50 657Q239 768 367 819L367 749Q267 702 206 610.50Q145 519 143 401Q148 238 256 129.50Q364 21 527 17Q690 21 798.50 129.50Q907 238 911 401Q909 519 848 610.50Q787 702 687 749L687 819Q815 768 893.50 657Q972 546 975 401Q970 211 843.50 84.50Q717-42 527-47M495 848L559 848L559 400L495 400L495 848Z"  horiz-adv-x="1024" vert-adv-y="1024"  />

      
      <glyph glyph-name="uniE609" unicode="&#xE609;" d="M960 490Q960 470 946 455L550 72Q535 58 516 57.50Q497 57 482 70L474 76L78 459Q64 474 64 494Q64 514 79 528.50Q94 543 114 543Q134 543 149 528L514 175L875 524Q890 538 910.50 538Q931 538 945.50 524Q960 510 960 490Z"  horiz-adv-x="1024" vert-adv-y="1024"  />

      
      <glyph glyph-name="uniE67F" unicode="&#xE67F;" d="M164-57Q128-57 104.50-33.50Q81-10 80 26L80 220Q80 231 87.50 239Q95 247 106.50 247Q118 247 125.50 239Q133 231 134 220L134 26Q134 13 142.50 5Q151-3 164-4L848-3Q861-3 869 5.50Q877 14 878 26L878 224Q878 235 885.50 243Q893 251 904.50 251Q916 251 923.50 243Q931 235 932 224L932 26Q931-9 907-32.50Q883-56 848-57L164-57M208 299Q160 299 123 317L123 321L116 321Q70 347 44 390.50Q18 434 17 487Q17 517 27 547L120 767Q130 796 155 812.50Q180 829 214 829L812 829Q848 829 874 812Q900 795 910 765L996 553L998 546Q1007 518 1007 488Q1006 435 980 391Q954 347 908 321Q869 300 816 300Q774 300 736 317.50Q698 335 671 367L664 376L656 367Q629 335 592 317.50Q555 300 512.50 300Q470 300 432.50 317.50Q395 335 368 367L360 375L353 367Q326 335 288.50 317.50Q251 300 208 299M146 366Q172 353 208 353Q244 353 274 370Q304 387 324 417L324 419Q326 424 333 432Q342 442 360.50 442Q379 442 389 431Q394 425 396 419L397 418Q416 388 446 371Q476 354 512 354Q548 354 578 371Q608 388 627 418L628 419Q630 424 636 432Q646 443 664 444Q674 443 681 439.50Q688 436 691 432Q698 424 700 419L700 418Q720 388 750 371Q780 354 816 353Q855 354 882 368Q915 387 934 418.50Q953 450 953 488Q953 510 946 532L860 746Q852 766 837 771Q822 776 813 776L214 776Q180 776 170 748L78 532Q71 510 71 487Q71 449 90.50 417Q110 385 143 367L146 366M215 523Q203 524 195.50 531.50Q188 539 188 550Q188 561 195.50 569Q203 577 215 577L797 577Q808 577 815.50 569Q823 561 823 550Q823 539 815.50 531.50Q808 524 797 523L215 523Z"  horiz-adv-x="1024" vert-adv-y="1024"  />

      
      <glyph glyph-name="uniE656" unicode="&#xE656;" d="M886 667L139 667Q129 667 122 674Q115 681 115 691Q115 701 122 708Q129 715 139 715L886 715Q896 715 903 708Q910 701 910 691Q910 681 903 674Q896 667 886 667M645 763L380 763Q370 763 363 770Q356 777 356 787Q356 797 363 804Q370 811 380 811L645 811Q655 811 662 804Q669 797 669 787Q669 777 662 770Q655 763 645 763M404 137L404 546Q404 556 411 563Q418 570 428 570Q438 570 445 563Q452 556 452 546L452 137Q452 126 445 119.50Q438 113 428 113Q418 113 411 119.50Q404 126 404 137M573 137L573 546Q573 556 580 563Q587 570 597 570Q607 570 614 563Q621 556 621 546L621 137Q621 126 614 119.50Q607 113 597 113Q587 113 580 119.50Q573 126 573 137M235 594Q246 594 252.50 587.50Q259 581 260 570L260 64Q260 44 273.50 30.50Q287 17 308 16L717 16Q738 17 751.50 30.50Q765 44 765 64L765 570Q766 581 772.50 587.50Q779 594 789.50 594Q800 594 806.50 587.50Q813 581 814 570L814 40Q813 9 792.50-11Q772-31 741-32L284-32Q253-31 232.50-11Q212 9 211 40L211 570Q212 581 218.50 587.50Q225 594 235 594Z"  horiz-adv-x="1024" vert-adv-y="1024"  />

      
      <glyph glyph-name="uniE632" unicode="&#xE632;" d="M22 319L205 319L517 144L1017 861L1139 861L528-111L505-111L22 319Z"  horiz-adv-x="1145" vert-adv-y="1024"  />

      
      <glyph glyph-name="uniE96B" unicode="&#xE96B;" d="M596 47L596 721Q597 735 606 744.50Q615 754 630 755L798 755Q813 754 822.50 745Q832 736 832 721L832 47Q832 33 822.50 23.50Q813 14 798 13L630 13Q616 14 606.50 23Q597 32 596 47M192 721Q192 735 201.50 744.50Q211 754 226 755L394 755Q408 754 417.50 745Q427 736 428 721L428 47Q427 33 418 23.50Q409 14 394 13L226 13Q211 14 201.50 23Q192 32 192 47L192 721Z"  horiz-adv-x="1024" vert-adv-y="1024"  />

      
      <glyph glyph-name="uniE633" unicode="&#xE633;" d="M704 769Q715 769 722.50 761.50Q730 754 730 743Q730 732 722.50 724.50Q715 717 704 716L57 716L116 342Q115 339 122 318.50Q129 298 160 291L747 277L825 764Q835 828 883 864Q926 896 1000 891Q1011 890 1018 882Q1025 874 1024 862.50Q1023 851 1015 844.50Q1007 838 996 838Q941 842 913 821Q883 799 877 756L779 144Q778 134 770.50 127Q763 120 753 120L142 120Q131 120 123.50 127.50Q116 135 116 146.50Q116 158 123.50 165Q131 172 142 173L731 173L739 225L154 238Q94 251 78 288.50Q62 326 64 340L1 736Q0 739 0 743Q0 754 7.50 761.50Q15 769 26 769L704 769M705 62Q744 61 770 35Q796 9 796-30Q796-69 770-95Q744-121 705-121Q666-121 640-95Q614-69 614-30Q614 9 640 35Q666 61 705 62M733-2Q722 9 705 9Q688 9 677-2Q666-13 666-29.50Q666-46 677-57.50Q688-69 705-69Q722-69 733-58Q744-47 744-30Q744-13 733-2M223 62Q262 61 288 35Q314 9 314-30Q314-69 288-95L287-95Q261-121 222.50-121Q184-121 158-95Q132-69 132-30Q132 9 158 35Q184 61 223 62M250-2Q239 9 222.50 9Q206 9 195-2Q184-13 184-29.50Q184-46 195-57.50Q206-69 222.50-69Q239-69 250-58L251-58Q262-47 262-30Q262-13 250-2Z"  horiz-adv-x="1025" vert-adv-y="1024"  />

      
      <glyph glyph-name="uniE611" unicode="&#xE611;" d="M151-128L151 339Q151 352 159.50 358.50Q168 365 178 365Q189 365 197 358.50Q205 352 205 339L205-74L420-74L420 213L707 213L707-74L923-74L923 339Q923 364 950 366Q975 364 977 339L977-128L654-128L654 159L474 159L474-128L151-128M9 378L564 896L1119 376Q1134 361 1124.50 345.50Q1115 330 1099 330Q1089 330 1082 337L564 822L45 338Q38 331 28 331Q20 331 13 335.50Q6 340 2.50 347Q-1 354 0 362.50Q1 371 9 378Z"  horiz-adv-x="1128" vert-adv-y="1024"  />

      
      <glyph glyph-name="uniE6A5" unicode="&#xE6A5;" d="M771-37Q786-53 786-73Q786-93 770.50-108.50Q755-124 735-124Q715-124 699-109L244 346Q237 352 234 360Q227 375 229.50 390.50Q232 406 244 418L707 881Q723 896 743 896Q763 896 778.50 880.50Q794 865 794 845Q794 825 779 809L352 382L771-37Z"  horiz-adv-x="1024" vert-adv-y="1024"  />

      
      <glyph glyph-name="uniE606" unicode="&#xE606;" d="M343 187L924 187Q934 186 939 180.50Q944 175 944 169Q944 163 939 157.50Q934 152 924 151L343 151Q333 152 328.50 157.50Q324 163 324 169Q324 175 328.50 180.50Q333 186 343 187M336 642L916 642Q926 642 931 636.50Q936 631 936 624.50Q936 618 931 612.50Q926 607 916 607L336 607Q326 607 321.50 612.50Q317 618 317 624.50Q317 631 321.50 636.50Q326 642 336 642M341 414L921 414Q931 414 936 408.50Q941 403 941 396.50Q941 390 936 384.50Q931 379 921 379L341 379Q331 379 326.50 384.50Q322 390 322 396.50Q322 403 326.50 408.50Q331 414 341 414M135 414L215 414Q225 414 230 408.50Q235 403 235 396.50Q235 390 230 384.50Q225 379 215 379L135 379Q126 379 121 384.50Q116 390 116 396.50Q116 403 121 408.50Q126 414 135 414M135 642L215 642Q225 642 230 636.50Q235 631 235 624.50Q235 618 230 612.50Q225 607 215 607L135 607Q126 607 121 612.50Q116 618 116 624.50Q116 631 121 636.50Q126 642 135 642M135 187L215 187Q225 186 230 180.50Q235 175 235 169Q235 163 230 157.50Q225 152 215 151L135 151Q126 152 121 157.50Q116 163 116 169Q116 175 121 180.50Q126 186 135 187Z"  horiz-adv-x="1024" vert-adv-y="1024"  />

      
      <glyph glyph-name="uniE61E" unicode="&#xE61E;" d="M0 404Q7 510 48 599Q89 688 156.50 753Q224 818 315 855.50Q406 893 512 895Q621 893 713.50 853.50Q806 814 874 746Q942 678 981.50 585.50Q1021 493 1023 384Q1022 342 995.50 315.50Q969 289 927 289Q885 289 858.50 315.50Q832 342 831 384Q829 474 799 554.50Q769 635 715 695.50Q661 756 585.50 792.50Q510 829 416 831Q326 829 252 794.50Q178 760 124 702.50Q70 645 38 568Q6 491 0 404M96 478Q138 478 164.50 451Q191 424 192 384Q194 294 224 213.50Q254 133 308 72Q362 11 437.50-25.50Q513-62 607-64Q696-62 769.50-28Q843 6 897 62.50Q951 119 983 194.50Q1015 270 1022 356Q1014 251 973 163.50Q932 76 864.50 12Q797-52 707-89Q617-126 512-128Q403-126 310-86.50Q217-47 149 21Q81 89 41.50 182Q2 275 0 384Q1 424 27.50 451Q54 478 96 478M0 396L0 404L0 396Z"  horiz-adv-x="1024" vert-adv-y="1024"  />

      
      <glyph glyph-name="uniE744" unicode="&#xE744;" d="M691 241L533 83Q529 77 522 75L521 75Q518 73 513 73L510 73Q507 74 504.50 74.50Q502 75 499 77L493 81L333 241Q325 249 325 259.50Q325 270 333 278Q341 286 351.50 286Q362 286 371 278L486 163L486 420Q486 431 493.50 438.50Q501 446 512.50 446Q524 446 531.50 438.50Q539 431 539 420L539 164L654 278Q662 286 672.50 286Q683 286 691 278Q699 270 699 259.50Q699 249 691 241M512 517Q501 518 493.50 525.50Q486 533 486 544Q486 555 493.50 562.50Q501 570 512.50 570Q524 570 531.50 562.50Q539 555 539 544Q539 533 531.50 525.50Q524 518 512 517M512 642Q501 642 493.50 649.50Q486 657 486 668.50Q486 680 493.50 687.50Q501 695 512.50 695Q524 695 531.50 687.50Q539 680 539 668.50Q539 657 531.50 649.50Q524 642 512 642Z"  horiz-adv-x="1024" vert-adv-y="1024"  />

      
      <glyph glyph-name="uniE605" unicode="&#xE605;" d="M985-102L39-102Q23-102 11.50-91.50Q0-81 0-64Q0-47 11.50-36.50Q23-26 39-26L985-26Q1001-26 1012.50-36.50Q1024-47 1024-64Q1024-81 1012.50-91.50Q1001-102 985-102M985 174L39 174Q23 174 11.50 185Q0 196 0 212.50Q0 229 11.50 239.50Q23 250 39 251L985 251Q1001 250 1012.50 239.50Q1024 229 1024 212.50Q1024 196 1012.50 185Q1001 174 985 174M985 451L39 451Q23 451 11.50 461.50Q0 472 0 488.50Q0 505 11.50 516Q23 527 39 527L985 527Q1001 527 1012.50 516Q1024 505 1024 488.50Q1024 472 1012.50 461.50Q1001 451 985 451M382 755L484 857Q496 868 512 868Q528 868 540 857L642 755Q660 734 650.50 712Q641 690 614 688L410 688Q383 690 373.50 712Q364 734 382 755Z"  horiz-adv-x="1024" vert-adv-y="1024"  />

      
      <glyph glyph-name="uniE60F" unicode="&#xE60F;" d="M497-101Q293-96 157 40Q21 176 16 380Q21 584 157 720Q293 856 497 861Q702 856 837.50 720Q973 584 979 380Q973 176 837.50 40Q702-96 497-101M497 829Q307 825 180 698Q53 571 48 380Q53 189 180 62.50Q307-64 497-69Q688-64 815 62.50Q942 189 947 380Q942 571 815 698Q688 825 497 829M315 384Q317 300 372.50 244.50Q428 189 512 187Q596 189 651.50 244.50Q707 300 709 384Q709 384 709 384Q707 468 651.50 523.50Q596 579 512 581Q428 579 372.50 523.50Q317 468 315 384Z"  horiz-adv-x="1024" vert-adv-y="1024"  />

      
      <glyph glyph-name="uniE689" unicode="&#xE689;" d="M903 715Q901 741 885 757Q869 773 843 775L181 775Q155 773 139 757Q123 741 121 715L121 53Q123 27 139 11Q155-5 181-7L843-7Q869-5 885 11Q901 27 903 53L903 715M840 832Q892 830 924.50 797Q957 764 959 712L959 56Q957 4 924.50-29Q892-62 840-64L184-64Q133-62 99.50-28.50Q66 5 64 56L64 712Q66 763 99.50 796.50Q133 830 184 832L840 832M742 522L434 218Q430 216 427 216Q426 216 420 218L282 361Q279 364 279 368Q279 372 282 375L300 396Q303 399 307 399Q311 399 314 396L420 314Q425 311 427 311Q431 311 434 314L710 549Q715 552 717 552Q721 552 724 549L742 536Q748 529 742 522Z"  horiz-adv-x="1024" vert-adv-y="1024"  />

      
      <glyph glyph-name="uniE6A0" unicode="&#xE6A0;" d="M7 382Q9 490 48 582Q87 674 154.50 741.50Q222 809 314 848Q406 887 514 889Q622 887 713.50 848Q805 809 872.50 741.50Q940 674 979 582Q1018 490 1020 382Q1018 274 979 182.50Q940 91 872.50 23.50Q805-44 713.50-83Q622-122 514-124Q406-122 314-83Q222-44 154.50 23.50Q87 91 48 182.50Q9 274 7 382M59 382Q61 286 96.50 203.50Q132 121 193 60.50Q254 0 336-35Q418-70 514-72Q610-70 692.50-35Q775 0 835.50 60.50Q896 121 931 203.50Q966 286 968 382Q966 479 931 561Q896 643 835.50 704Q775 765 693 800Q611 835 514 837Q417 835 335 800Q253 765 192 704Q131 643 96 561Q61 479 59 382M361 572L514 420L666 572Q674 580 684 580Q699 580 708 564.50Q717 549 703 535L551 383L703 230Q715 218 708.50 201.50Q702 185 685 185Q674 185 666 193L514 346L361 193Q353 185 342 185Q325 185 318.50 201.50Q312 218 324 230L477 383L324 535Q310 549 319 564.50Q328 580 343 580Q353 580 361 572Z"  horiz-adv-x="1024" vert-adv-y="1024"  />

      
      <glyph glyph-name="uniE6B1" unicode="&#xE6B1;" d="M512 831Q702 827 828.50 700.50Q955 574 959 384Q955 194 828.50 67.50Q702-59 512-63Q322-59 195.50 67.50Q69 194 65 384Q69 574 195.50 700.50Q322 827 512 831M512-8Q678-3 788.50 107.50Q899 218 904 384Q899 550 788.50 660.50Q678 771 512 776Q346 771 235.50 660.50Q125 550 120 384Q125 218 235.50 107.50Q346-3 512-8M717 412Q730 387 722.50 367Q715 347 701 338L457 199Q440 190 424 190Q400 191 386.50 205Q373 219 369 232L368 236L368 520Q368 547 383 563Q398 579 425 579Q440 578 452 574.50Q464 571 466 570L714 419L717 412M667 382L442 519L433 522Q428 523 424 523L423 247L425 246Q426 246 431 248L667 382Z"  horiz-adv-x="1024" vert-adv-y="1024"  />

      
      <glyph glyph-name="uniE602" unicode="&#xE602;" d="M80 539L345 539L345 776Q346 803 363.50 820.50Q381 838 407 838L944 838Q971 838 988.50 820.50Q1006 803 1006 776L1006 415Q1006 389 988.50 371.50Q971 354 944 353L885 353L885 219Q884 206 873 201Q869 198 864 198Q855 200 851 203L679 339L679 116Q678 90 660.50 72.50Q643 55 617 54L363 54L173-97Q168-101 160-101Q157-101 151-99Q140-93 139-80L139 54L80 54Q54 55 36.50 72.50Q19 90 18 116L18 477Q19 503 36.50 520.50Q54 538 80 539M59 116Q61 95 80 95L160 95Q169 95 174.50 89Q180 83 181 75L181-38L343 91Q348 95 356 95L617 95Q638 95 638 116L638 477Q638 496 617 498L80 498Q61 496 59 477L59 116M617 539Q643 538 660.50 520.50Q678 503 679 477L679 392L681 390L844 262L844 374Q844 395 864 395L944 395Q953 395 959 401Q965 407 965 415L965 776Q965 797 944 797L407 797Q388 797 386 776L386 539L617 539M455 681Q451 682 451 684.50Q451 687 455 688L783 688Q787 687 787 684.50Q787 682 783 681L455 681M137 371Q133 372 133 374.50Q133 377 137 378L465 378Q469 377 469 374.50Q469 372 465 371L137 371M278 266Q275 267 275 270Q275 273 278 273L552 273Q555 273 555 270Q555 267 552 266L278 266M619 577Q616 577 616 580Q616 583 619 583L892 583Q896 583 896 580Q896 577 892 577L619 577Z"  horiz-adv-x="1024" vert-adv-y="1024"  />

      
      <glyph glyph-name="uniE60E" unicode="&#xE60E;" d="M72 384Q73 426 101 454Q129 482 171.50 482Q214 482 242 454Q270 426 270 384Q270 342 242 314Q214 286 171.50 286Q129 286 101 314Q73 342 72 384M408 384Q409 426 437 454Q465 482 507 482Q549 482 577 454Q605 426 605 384Q605 342 577 314Q549 286 507 286Q465 286 437 314Q409 342 408 384M743 384Q744 426 772 454Q800 482 842 482Q884 482 912.50 454Q941 426 941 384Q941 342 912.50 314Q884 286 842 286Q800 286 772 314Q744 342 743 384Z"  horiz-adv-x="1024" vert-adv-y="1024"  />

      
      <glyph glyph-name="uniE649" unicode="&#xE649;" d="M550-50Q549-61 538-62L485-62Q473-61 472-50L472 682L294 497Q285 489 276 497L239 534Q231 543 239 552L503 826Q507 830 512 830Q517 830 521 826L785 552Q793 543 785 534L748 497Q739 489 730 497L550 684L550-50Z"  horiz-adv-x="1024" vert-adv-y="1024"  />

      
      <glyph glyph-name="uniE646" unicode="&#xE646;" d="M354 177Q352 176 349 176Q341 176 336 182.50Q331 189 333 197L386 341L838 793Q862 817 895 817Q927 817 952 794Q975 770 975 737Q975 704 952 680L499 228L354 177M144 64L144 656Q144 688 168 712Q192 736 224 736L592 736Q608 736 608 720Q608 704 592 704L224 704Q205 704 190.50 689.50Q176 675 176 656L176 64Q176 45 190.50 30.50Q205 16 224 16L816 16Q835 16 849.50 30.50Q864 45 864 64L864 480Q864 496 880 496Q896 496 896 480L896 64Q896 32 872 8Q848-16 816-16L224-16Q192-16 168 8Q144 32 144 64M790 700L445 355Q466 347 485 328Q504 309 513 287L858 632L790 700M861 771L812 722L880 654L929 703Q943 717 943 737Q943 757 929 771Q915 784 895 784Q875 784 861 771M375 218L482 256L487 261Q487 262 485 272Q482 280 475 290Q468 300 458.50 308.50Q449 317 438.50 323Q428 329 419 329L414 324L375 218Z"  horiz-adv-x="1024" vert-adv-y="1024"  />

      
      <glyph glyph-name="uniE68B" unicode="&#xE68B;" d="M961 678Q961 669 956 663L405 54Q399 48 390 48Q381 48 375 54L69 380Q64 386 64 395.50Q64 405 69.50 411Q75 417 83.50 417Q92 417 98 411L390 100L926 693Q932 699 941 699Q950 699 955.50 693Q961 687 961 678Z"  horiz-adv-x="1024" vert-adv-y="1024"  />

      
      <glyph glyph-name="uniE638" unicode="&#xE638;" d="M90 889Q209 826 319 742Q429 658 527 565Q625 655 732 734Q839 813 953 870L989 803Q889 728 795.50 645Q702 562 618 476Q766 323 869 197Q972 71 1017 17Q998 25 928.50-42.50Q859-110 850-121Q806-32 718 92Q630 216 507 356Q383 217 295.50 93.50Q208-30 165-118L7 14Q65 72 169.50 193Q274 314 414 457Q323 552 220.50 644.50Q118 737 7 819L90 889Z"  horiz-adv-x="1024" vert-adv-y="1024"  />

      
      <glyph glyph-name="uniE63D" unicode="&#xE63D;" d="M768 896Q443 876 225.50 688Q8 500 0 384Q8 240 225.50 64Q443-112 768-128Q1093-108 1310.50 80Q1528 268 1536 384Q1528 500 1310.50 688Q1093 876 768 896M768-43Q479-24 286 138.50Q93 301 85 384Q93 467 286 629.50Q479 792 768 811Q1057 792 1250 629.50Q1443 467 1451 384Q1443 301 1250 138.50Q1057-24 768-43M768 107Q650 110 572 188Q494 266 491 384Q494 502 572 580Q650 658 768 661Q886 658 964 580Q1042 502 1045 384Q1042 266 964 188Q886 110 768 107M768 576Q686 574 632 520Q578 466 576 384Q578 302 632 248Q686 194 768 192Q850 194 904 248Q958 302 960 384Q958 466 904 520Q850 574 768 576Z"  horiz-adv-x="1536" vert-adv-y="1024"  />

      
      <glyph glyph-name="uniE63E" unicode="&#xE63E;" d="M211 779Q170 777 144.50 751.50Q119 726 117 685L117 83Q119 42 145 17Q170-9 211-11L813-11Q854-9 879.50 16.50Q905 42 907 83L907 685Q906 725 880 752Q853 778 813 779L211 779M813-63L211-63Q148-61 107.50-20.50Q67 20 65 83L65 685Q67 748 107.50 788.50Q148 829 211 831L813 831Q876 829 916.50 788.50Q957 748 959 685L959 83Q957 20 916.50-20.50Q876-61 813-63M772 533Q777 528 777 521Q777 514 772 509L475 187Q468 182 464 182Q456 182 450 188L252 392Q247 397 247 404Q247 409 252 416L299 464Q304 469 311 469Q317 469 322 464L462 321L703 581Q708 586 715 586Q721 586 726 581L772 533Z"  horiz-adv-x="1024" vert-adv-y="1024"  />

      
      <glyph glyph-name="uniE61B" unicode="&#xE61B;" d="M82 814L942 814L942-46L82-46L82 814Z"  horiz-adv-x="1024" vert-adv-y="1024"  />

      
      <glyph glyph-name="uniE866" unicode="&#xE866;" d="M128 291L128 724L181 724Q342 730 417 772Q491 815 490 820L512 843L534 820Q532 814 608 773Q682 732 841 726L896 726L896 291Q904 203 835 94Q766-16 523-113L512-117L501-113Q258-16 189 94Q120 203 128 291M215 140Q268 37 512-64Q756 36 809 141Q862 246 852 295L849 679L841 679Q696 682 616 718Q536 754 512 780Q488 754 408 718Q329 682 183 679L172 679L172 295Q162 244 215 140M286 360L330 396L448 307Q454 317 532 401Q572 444 618 481Q664 518 718 549L738 526Q731 523 642 428Q552 332 479 183L286 360Z"  horiz-adv-x="1024" vert-adv-y="1024"  />

      
      <glyph glyph-name="uniE677" unicode="&#xE677;" d="M23-76Q31-13 54 44Q77 101 113.50 149Q150 197 199 234.50Q248 272 306 296L307 296Q291 306 277 317.50Q263 329 249 342Q215 377 192.50 419.50Q170 462 161 508Q152 554 156.50 602Q161 650 179 695Q197 740 228 777Q259 814 299 840Q339 866 385 880.50Q431 895 479 895Q527 895 573 880.50Q619 866 658 840Q697 814 728 777Q759 740 778 695Q796 650 800.50 602Q805 554 795.50 508Q786 462 764 419.50Q742 377 707 342Q682 317 651 297Q705 274 752 240Q763 231 764.50 220.50Q766 210 762 200.50Q758 191 749.50 184.50Q741 178 731 178Q720 178 712 185Q609 262 479 262Q404 262 337.50 235Q271 208 219 161.50Q167 115 133 52Q99-11 90-84Q89-97 79.50-105.50Q70-114 57-114L53-114Q38-112 30-101Q22-90 23-76M298 390Q333 355 379 335Q425 315 475 315Q528 315 575 334Q622 353 659 390Q714 445 729 521Q744 597 715 669Q700 704 676 733Q652 762 621 783Q590 804 553.50 815.50Q517 827 479 827Q440 827 404 815.50Q368 804 336.50 783Q305 762 281 733Q257 704 242 669Q213 597 228 521Q243 445 298 390M725 62L813 62L813 149Q813 166 823 174Q833 182 846 182Q858 182 868.50 174Q879 166 881 149L881 62L968 62Q985 62 993 51.50Q1001 41 1001 28Q1001 15 993 4.50Q985-6 968-6L881-6L881-93Q879-110 868.50-118Q858-126 846-126Q833-126 823-118Q813-110 813-93L813-6L725-6Q709-6 701 4.50Q693 15 693 28Q693 41 701 51.50Q709 62 725 62Z"  horiz-adv-x="1024" vert-adv-y="1024"  />

      
      <glyph glyph-name="uniE613" unicode="&#xE613;" d="M598 44L598-24L460-24L460 44L17 44L17 136L460 136L460 205L598 205L598 136L1025 136L1025 44L598 44M322 355L322 446L368 446L368 492L414 492L414 538L460 538L460 584L506 584L506 630L551 630L551 722L414 722L414 676L322 676L322 722L368 722L368 767L597 767L597 722L643 722L643 584L597 584L597 538L551 538L551 492L506 492L506 446L460 446L460 401L643 401L643 355L322 355M689 401L689 446L781 446L781 401L918 401L918 584L827 584L827 630L918 630L918 722L781 722L781 676L689 676L689 722L735 722L735 767L964 767L964 722L1010 722L1010 630L964 630L964 584L1010 584L1010 446L964 446L964 401L918 401L918 355L735 355L735 401L689 401M1 676L47 676L47 722L93 722L93 767L185 767L185 355L93 355L93 630L47 630L47 584L1 584L1 676Z"  horiz-adv-x="1026" vert-adv-y="1024"  />

      
      <glyph glyph-name="uniE625" unicode="&#xE625;" d="M435 666Q436 698 457.50 720Q479 742 512 742Q545 742 566.50 720Q588 698 588 665.50Q588 633 566.50 611.50Q545 590 512 590Q479 590 457.50 611.50Q436 633 435 666M435 384Q436 417 457.50 438.50Q479 460 512 460Q545 460 566.50 438.50Q588 417 588 384Q588 351 566.50 329.50Q545 308 512 308Q479 308 457.50 329.50Q436 351 435 384M435 102Q436 135 457.50 156.50Q479 178 512 178Q545 178 566.50 156.50Q588 135 588 102.50Q588 70 566.50 48Q545 26 512 26Q479 26 457.50 48Q436 70 435 102Z"  horiz-adv-x="1024" vert-adv-y="1024"  />

      
      <glyph glyph-name="uniE679" unicode="&#xE679;" d="M717 691Q847 688 934 601Q1021 514 1024 384Q1021 254 934 167Q847 80 717 77L307 77Q177 80 90 167Q3 254 0 384Q3 514 90 601Q177 688 307 691L717 691M717 111Q833 114 910 191Q987 268 990 384Q987 500 910 577Q833 654 717 657L307 657Q191 654 114 577Q37 500 34 384Q37 268 114 191Q191 114 307 111L717 111M717 606Q811 603 873.50 540.50Q936 478 939 384Q936 290 873.50 227.50Q811 165 717 162Q623 165 560 227.50Q497 290 495 384Q497 478 560 540.50Q623 603 717 606M717 196Q796 198 849.50 251Q903 304 905 384Q903 464 849.50 517Q796 570 717 572Q637 570 584 517Q531 464 529 384Q531 304 584 251Q637 198 717 196M290 538Q297 538 302 533Q307 528 307 521L307 247Q307 238 298.50 233Q290 228 281.50 233Q273 238 273 247L273 521Q273 528 278 532.50Q283 537 290 538Z"  horiz-adv-x="1024" vert-adv-y="1024"  />

      
      <glyph glyph-name="uniE60C" unicode="&#xE60C;" d="M73-55L219-55L219 457L73 457L73-55M439-56Q439-54 440-55L584-55L585-55L585 238Q585 237 584 238L439 238L439-56M805-54Q804-55 805-55L950-55Q951-55 951-54L951 91Q951 92 950 91L805 91L805-54M73 677Q73 676 74 677L219 677L219 822Q220 823 219 823L74 823Q73 823 73 822L73 677M439 457L585 457L585 823L439 823L439 457M805 311L951 311L951 823L805 823L805 311M74 530L219 530Q251 530 271 509.50Q291 489 293 457L293-55Q292-86 272-107Q251-126 219-128L74-128Q42-126 22-106.50Q2-87 0-55L0 457Q2 489 22 509.50Q42 530 74 530M440 311L584 311Q616 309 637 290Q657 269 658 238L658-56Q658-88 636.50-107Q615-126 584-128L440-128Q408-126 388-107Q368-88 366-56L366 238Q366 271 387 290Q408 309 440 311M805 165L950 165Q982 163 1003 144Q1022 123 1024 91L1024-54Q1022-86 1003-107Q982-126 950-128L805-128Q773-126 753-106Q733-86 731-54L731 91Q733 123 753 143Q773 163 805 165M74 896L219 896Q251 894 271 874Q291 854 293 822L293 677Q291 645 271 625Q251 605 219 603L74 603Q41 605 22 625Q2 644 0 677L0 822Q2 854 22 874Q42 894 74 896M440 896L584 896Q616 894 637 875Q657 854 658 823L658 457Q658 425 636.50 405.50Q615 386 584 384L440 384Q407 386 388 406Q368 425 366 457L366 823Q366 856 387 875Q408 894 440 896M805 896L950 896Q982 894 1003 875Q1023 854 1024 823L1024 311Q1022 279 1002 258.50Q982 238 950 238L805 238Q773 238 753 258.50Q733 279 731 311L731 823Q733 855 753 874.50Q773 894 805 896Z"  horiz-adv-x="1024" vert-adv-y="1024"  />

      
      <glyph glyph-name="uniE661" unicode="&#xE661;" d="M750-84Q726-84 705-73L512 31L320-73Q296-85 269.50-83.50Q243-82 220.50-67Q198-52 187.50-27.50Q177-3 182 23L219 248L57 411Q38 430 32 455Q26 480 34.50 505Q43 530 63 546.50Q83 563 110 567L331 600L427 799Q439 824 461.50 838Q484 852 512 852Q540 852 562.50 838Q585 824 597 799L693 600L914 567Q941 563 961 546.50Q981 530 989.50 505Q998 480 992 455Q986 430 967 411L805 248L842 23Q847-3 836.50-27.50Q826-52 804-67Q779-84 750-84M512 92Q519 92 525 88L731-23Q741-28 751.50-27.50Q762-27 771-21Q789-8 786 14L746 253Q744 268 754 278L927 451Q942 467 935 487Q928 507 906 511L670 546Q655 548 648 561L546 775Q541 784 532 789.50Q523 795 512 795Q501 795 492 789.50Q483 784 478 775L376 561Q369 548 354 546L118 511Q108 509 100 502.50Q92 496 88 487Q82 467 97 451L270 278Q280 268 278 253L238 14Q235-7 253-21Q262-27 272.50-27.50Q283-28 293-23L499 88Q505 92 512 92M200 439Q189 440 186 451Q185 457 188.50 461.50Q192 466 198 467L208 469Q214 470 218.50 466.50Q223 463 224 457Q225 451 221.50 446.50Q218 442 212 441L200 439M253 448Q242 448 239 459Q238 465 241 470Q244 475 250 476L404 506L462 639Q464 644 469.50 646Q475 648 480.50 646Q486 644 488 638.50Q490 633 488 627L427 487Q424 481 417 479L253 448Z"  horiz-adv-x="1024" vert-adv-y="1024"  />

      
      <glyph glyph-name="uniE617" unicode="&#xE617;" d="M99 826L512 412L926 826Q932 832 939 832Q950 832 957.50 820Q965 808 954 797L540 384L954-30Q965-41 957.50-52.50Q950-64 939-64Q932-64 926-58L512 356L98-58Q92-64 85-64Q74-64 66.50-52.50Q59-41 70-30L484 384L70 797Q59 808 66 820Q73 832 85 832Q92 832 99 826Z"  horiz-adv-x="1024" vert-adv-y="1024"  />

      
      <glyph glyph-name="uniE75B" unicode="&#xE75B;" d="M710 258Q689 258 689 279L689 359Q689 371 680 378Q669 386 658 386Q632 386 629 359L629 311Q629 303 624 296Q618 290 609 290Q588 290 588 311L588 391Q586 403 577.50 410.50Q569 418 557 418Q543 418 536 411Q527 404 527 391L527 343Q527 322 506 322Q497 322 492 328Q486 334 486 343L486 582Q484 593 476.50 601Q469 609 457 609Q444 609 436 601Q427 594 427 582L427 215Q427 194 406 194Q393 194 387 206L292 361Q290 364 283 366Q276 366 270 363Q258 357 264 341Q265 335 305 247Q324 204 347.50 166Q371 128 399 94Q402 94 409 85.50Q416 77 423 65.50Q430 54 436.50 44Q443 34 444 31Q447 24 444 16Q441 9 433 4Q427 2 425 2Q412 3 406 15Q405 17 400 25Q395 33 389.50 41.50Q384 50 378.50 57Q373 64 370 64Q339 101 314 141Q289 181 269 226Q229 311 226 326Q216 351 225 372Q232 389 247.50 398Q263 407 281 407Q311 407 327 383L385 289L385 582Q387 612 406 631Q425 650 456 650Q487 650 506 631Q525 612 527 582L527 453Q541 459 557 459Q601 459 623 420Q639 428 657 428Q687 426 708 408.50Q729 391 731 360Q740 364 756 364Q788 364 802.50 343.50Q817 323 817 294Q817 278 812 256Q807 234 800 211Q793 188 785 166.50Q777 145 770 131Q757 105 746.50 77Q736 49 731 20Q727 2 711 2Q708 2 707 3Q698 5 694 11Q689 20 690 27Q704 93 733 150Q758 198 767 246Q776 293 776 296Q776 306 772 314Q767 322 757 322Q731 322 731 295L731 279Q731 258 710 258M630 561Q622 561 616 567.50Q610 574 610 582Q608 648 565 690.50Q522 733 456 735Q391 733 348 690Q305 647 303 582Q303 561 282 561Q273 561 268 567Q263 572 261 582Q262 623 277 658Q292 693 318.50 719.50Q345 746 380 761Q415 776 456 777Q497 776 532.50 760.50Q568 745 594 719.50Q620 694 635 659Q650 624 651 582Q651 561 630 561Z"  horiz-adv-x="1024" vert-adv-y="1024"  />

      
      <glyph glyph-name="uniE603" unicode="&#xE603;" d="M30 516Q52 597 98 664.50Q144 732 207 780.50Q270 829 347 856Q424 883 508 883Q571 883 636 866L641 865Q841 804 938 634Q1036 463 986 260Q968 192 930 130Q920 114 901 114Q892 114 884 119Q872 127 868.50 140Q865 153 872 166Q905 219 920 277Q942 362 932 444.50Q922 527 878 602Q819 702 720.50 758.50Q622 815 507 815Q407 815 318.50 771Q230 727 169 648Q118 582 95.50 499Q73 416 84 332Q95 253 132.50 185Q170 117 227 67Q284 17 356.50-11Q429-39 508-39Q626-39 730 24Q740 29 748 29Q767 28 777 13Q784 1 781-13Q778-27 766-34Q646-107 508-107Q442-107 379-90Q316-73 260.50-41Q205-9 159 37Q113 83 80 141Q-19 313 30 516M474 339L474 606Q474 623 484.50 631Q495 639 508 639Q521 639 531.50 631Q542 623 542 606L542 339Q542 325 532 315.50Q522 306 508 305Q494 306 484 315.50Q474 325 474 339M474 218Q474 235 484.50 243Q495 251 508 251Q521 251 531.50 243Q542 235 542 218L542 170Q542 155 532 145.50Q522 136 508 136Q493 136 483.50 145.50Q474 155 474 170L474 218Z"  horiz-adv-x="1024" vert-adv-y="1024"  />

      
      <glyph glyph-name="uniE923" unicode="&#xE923;" d="M398-4L398 681Q398 691 405 697Q412 703 421 703Q431 703 436 698L938 241Q949 230 943.50 216Q938 202 923 201L728 201L807 4Q811-4 807-13Q803-22 794-25L680-71Q674-73 672-73Q657-72 651-58L573 135L438-19Q431-26 421-26Q412-26 405-20.50Q398-15 398-4M147 841L786 841Q815 840 834.50 820.50Q854 801 854 772L854 453Q854 442 847 436.50Q840 431 832 431Q823 431 816 436.50Q809 442 809 453L809 772Q809 782 802.50 788.50Q796 795 786 795L147 795Q137 795 130.50 788.50Q124 782 124 772L124 224Q124 215 130.50 208.50Q137 202 147 201L329 201Q340 201 346 194Q352 187 352 178.50Q352 170 346 163Q340 156 329 156L147 156Q118 156 98.50 175.50Q79 195 78 224L78 772Q79 801 98.50 820.50Q118 840 147 841Z"  horiz-adv-x="1024" vert-adv-y="1024"  />

      
      <glyph glyph-name="uniE604" unicode="&#xE604;" d="M0 640L256 640L256 704L128 704L128 768L448 768L448 704L320 704L320 640L1024 640L1024 64L320 64L320 0L448 0L448-64L128-64L128 0L256 0L256 64L0 64L0 640M320 128L960 128L960 576L320 576L320 128M64 128L256 128L256 576L64 576L64 128M757 460L849 552L941 460L757 460M849 131L757 223L941 223L849 131M606 254L486 254L486 259Q515 288 540 316Q555 332 570 352Q585 372 586 398Q584 445 543 445Q524 444 512.50 433.50Q501 423 495 413L490 417L509 443Q526 460 551 461Q572 461 587.50 447.50Q603 434 604 409Q604 387 593 368Q582 349 561 328L508 270L578 270Q591 270 597 274Q603 278 609 293L616 291Q614 283 611 274Q608 265 606 254M684 250Q668 251 658.50 257Q649 263 649 269Q649 274 653 276.50Q657 279 661 279Q665 279 666 278Q671 272 679.50 268.50Q688 265 702 265Q721 265 735.50 278Q750 291 751 318Q750 335 744 345Q738 355 730.50 360.50Q723 366 716 367.50Q709 369 704 369Q695 368 688.50 366Q682 364 678 363L676 368Q703 377 720 388.50Q737 400 737 417Q737 447 705 447Q687 446 677 437Q667 428 662 419L657 423L670 444Q677 452 688 456.50Q699 461 710 461Q732 461 744 449Q756 437 757 420Q756 409 747.50 400.50Q739 392 722 383Q745 378 757 363.50Q769 349 770 330Q767 289 736 270Q704 250 684 250M357 258Q380 260 386 265.50Q392 271 391 288L391 419Q391 429 388 433Q385 437 373 438L359 439L359 444Q389 450 407 461L407 288Q407 272 413 266Q419 260 441 258L441 254L357 254L357 258Z"  horiz-adv-x="1024" vert-adv-y="1024"  />

      
      <glyph glyph-name="uniE667" unicode="&#xE667;" d="M0-34L0 804L372 804L372 617L419 617L419 757L698 757L698 617L745 617L745 757L1024 757L1024-34L0-34M326 757L47 757L47 12L977 12L977 571L326 571L326 757M652 59L512 59L512 524L652 524L652 59M326 338L465 338L465 59L326 59L326 338M838 59L698 59L698 292L838 292L838 59M279 59L140 59L140 199L279 199L279 59Z"  horiz-adv-x="1024" vert-adv-y="1024"  />

      
      <glyph glyph-name="uniE60B" unicode="&#xE60B;" d="M236 149Q152 206 108 283Q64 360 64 448Q67 538 105 608.50Q143 679 205 728Q267 777 345.50 803Q424 829 508 831L508 782L510 782Q516 782 521.50 781.50Q527 781 533 781L539 781L539 830Q531 830 524.50 830.50Q518 831 510 831L539 831L539 830Q619 824 693 796Q767 768 825 719.50Q883 671 918.50 603Q954 535 956 449Q953 359 915.50 289.50Q878 220 817 171.50Q756 123 678 96Q600 69 517 66Q473 30 428.50-3.50Q384-37 331-59Q321-61 318-61Q306-61 295-52Q280-37 288-17Q300 12 309 39.50Q318 67 321 82Q317 89 317 98Q317 111 326 120Q335 129 348 130Q358 130 365 126.50Q372 123 375 111Q375 103 367.50 75Q360 47 347 2Q421 51 484 114L510 116Q584 118 654 140Q724 162 779.50 204Q835 246 870 307Q905 368 908 449Q905 526 873 585.50Q841 645 789 687Q737 729 670.50 753Q604 777 533 781L508 781L508 782Q435 780 365 757.50Q295 735 239.50 693Q184 651 149.50 590Q115 529 112 449Q113 368 152.50 301.50Q192 235 261 189Q281 184 281 164Q281 154 273 146.50Q265 139 255 139Q244 139 237 149L236 149M410 487Q398 487 391.50 495Q385 503 385 512Q385 521 391.50 529Q398 537 410 537L612 537Q624 537 630 529Q636 521 636 512Q636 503 630 495Q624 487 612 487L410 487M404 360Q392 360 386 368Q380 376 380 385Q380 394 386 402Q392 410 404 410L557 410Q569 410 574.50 402Q580 394 580 385Q580 376 574.50 368Q569 360 557 360L404 360Z"  horiz-adv-x="1024" vert-adv-y="1024"  />

      
      <glyph glyph-name="uniE6EE" unicode="&#xE6EE;" d="M901 282L389 282L389 486L901 486L901 282M860 445L430 445L430 323L860 323L860 445M143 773L594 773L594 568L143 568L143 609L553 609L553 732L143 732L143 773M553 36L553 159L143 159L143 200L594 200L594-5L143-5L143 36L553 36M231 288L135 384L231 480Q239 486 245 486Q257 486 264 474.50Q271 463 260 452L193 384L260 316Q271 305 264 293.50Q257 282 245 282Q239 282 231 288Z"  horiz-adv-x="1024" vert-adv-y="1024"  />

      
      <glyph glyph-name="uniE615" unicode="&#xE615;" d="M0 722Q1 731 10 732L166 732Q174 777 207 805.50Q240 834 287 834Q334 834 366.50 805.50Q399 777 408 732L1014 732Q1024 732 1024 722L1024 701Q1024 691 1014 691L408 691Q399 646 366.50 618Q334 590 287 590Q240 590 207 618Q174 646 166 691L10 691Q0 691 0 701L0 722M0 67Q1 76 10 77L453 77Q461 122 494 150Q527 178 574 178Q621 178 653.50 150Q686 122 694 77L1014 77Q1024 77 1024 67L1024 46Q1024 36 1014 36L694 36Q686-9 653.50-37.50Q621-66 574-66Q527-66 494-37.50Q461-9 453 36L10 36Q0 36 0 46L0 67M0 394Q0 404 10 404L616 404Q625 449 658 477.50Q691 506 738 506Q785 506 817.50 477.50Q850 449 858 404L1014 404Q1024 404 1024 394L1024 374Q1024 364 1014 364L858 364Q850 319 817.50 290.50Q785 262 738 262Q691 262 658 290.50Q625 319 616 364L10 364Q0 364 0 374L0 394M492 57Q492 23 515.50-1Q539-25 574-25Q603-25 624-8Q645 9 652 36Q653 41 653.50 46.50Q654 52 654 57Q654 65 652 77Q645 104 624 120.50Q603 137 573 138Q544 137 522.50 120.50Q501 104 494 77Q492 65 492 57M658 364Q665 338 687.50 320Q710 302 737 302Q767 303 788.50 320Q810 337 816 364Q818 376 818 384Q818 392 816 404Q810 431 788.50 448Q767 465 737 466Q710 466 687.50 448Q665 430 658 404Q655 395 655 384Q655 373 658 364M208 732Q206 720 206 712Q206 707 206.50 701.50Q207 696 208 691Q215 665 236 648Q257 631 287 631Q317 631 338 648Q359 665 366 691Q367 696 367.50 701.50Q368 707 368 712Q368 720 366 732Q359 759 338 776Q317 793 287 794Q257 793 236 776Q215 759 208 732Z"  horiz-adv-x="1024" vert-adv-y="1024"  />

      
      <glyph glyph-name="uniE699" unicode="&#xE699;" d="M931 195L931 816Q931 817 929 823Q928 825 927 826Q926 827 925 829Q920 834 912 835L102 835Q99 835 95.50 834Q92 833 90 829Q88 825 87 824Q85 822 83 816L83 195Q83 188 89.50 183Q96 178 102 176L912 176Q913 176 919 178Q921 179 922 180Q923 181 925 182Q930 187 931 195M358-61Q358-43 346-32Q334-20 317-20Q299-20 288-32Q276-43 276-61Q276-78 288-90Q299-102 317-102Q335-102 346.50-90.50Q358-79 358-61M656 678L867 467L867 240L154 240L154 339L317 502L397 422L656 678M250 570Q230 570 212 577Q194 584 180 599Q166 612 158 631Q150 650 150 669Q150 711 179 739.50Q208 768 250 768Q272 768 289 762Q306 756 320 739Q349 710 349 669Q349 627 320 598Q289 570 250 570M995 816L995 195Q996 163 973 138Q960 125 946.50 120Q933 115 915 115L109 115Q74 115 52 138Q28 162 29 195L29 816Q28 850 52 874Q74 896 109 896L918 896Q953 896 976 874Q984 860 990 848Q995 831 995 816M384-61Q382-90 364-108.50Q346-127 317-127Q288-127 269-109Q250-91 250-61Q250-31 269-13Q287 6 317 6Q346 6 364-13Q382-32 384-61M528-61Q528-78 516-90Q504-102 487-102Q470-102 459-90Q448-77 449-61Q449-43 461-32Q472-20 490-20Q508-20 518-32Q528-44 528-61M653-19Q671-21 682-32Q694-43 694-61Q694-78 682-90Q670-102 653-102Q636-102 624-90Q612-78 612-61Q612-43 624-32Q635-21 653-19Z"  horiz-adv-x="1024" vert-adv-y="1024"  />

      
      <glyph glyph-name="uniE6DC" unicode="&#xE6DC;" d="M925 152Q960 117 960 67Q959 16 925-17.50Q891-51 840-53L418-52Q387-52 359-40Q331-28 309-6Q287 16 275.50 44Q264 72 264 103Q266 169 309.50 212Q353 255 421 257Q447 326 505.50 368Q564 410 640 411Q737 408 802.50 344Q868 280 872 183Q903 175 925 152M840 11Q863 12 879 28Q895 44 895 67Q895 90 880.50 106Q866 122 843 124L802 123L807 167Q808 173 808 179Q806 250 758.50 297.50Q711 345 640 347Q579 346 534.50 310Q490 274 475 216L468 185L438 191Q417 195 397.50 190.50Q378 186 362 173Q346 160 337 142Q328 124 328 103Q328 66 354.50 39.50Q381 13 419 12L840 11L839-21L840 11M281 554Q268 557 256 557Q202 556 166 520.50Q130 485 128 431Q128 405 137.50 382Q147 359 165 341Q183 323 206 313.50Q229 304 255 303L255 239Q216 240 181.50 254.50Q147 269 120 296Q93 323 78.50 357.50Q64 392 64 430.50Q64 469 78.50 504Q93 539 120.50 565.50Q148 592 182.50 606.50Q217 621 255 621L265 621Q296 711 370.50 765Q445 819 541 821L542 821Q600 820 653.50 798Q707 776 748 735Q789 694 811 641Q833 588 833 529L833 527Q884 515 915 476Q946 437 947 384L883 385Q882 418 860 441.50Q838 465 804 467L798 466L762 466L767 512Q769 520 769 529Q769 575 752 616Q735 657 702.50 689.50Q670 722 629 739Q588 756 542 757L541 757Q460 755 399.50 706.50Q339 658 319 579L312 548L281 554Z"  horiz-adv-x="1024" vert-adv-y="1024"  />

      
      <glyph glyph-name="uniE731" unicode="&#xE731;" d="M813-63L211-63Q149-62 107.50-20.50Q66 21 65 83L65 685Q66 747 107.50 788.50Q149 830 211 831L813 831Q875 830 916.50 788.50Q958 747 959 685L959 83Q958 21 916.50-20.50Q875-62 813-63M211 779Q171 778 144.50 751.50Q118 725 117 685L117 83Q118 43 144.50 16.50Q171-10 211-11L813-11Q853-10 879.50 16.50Q906 43 907 83L907 685Q906 725 879.50 751.50Q853 778 813 779L211 779Z"  horiz-adv-x="1024" vert-adv-y="1024"  />

      

  </font>
</defs>
</svg>
